# xmcd
#
# Track frame offsets:
#	150
#	9365
#	27592
#	36132
#	54788
#	67502
#	87724
#	105766
#	120859
#	133394
#	144681
#	160301
#	173184
#	185285
#	199267
#	212023
#	226690
#	237514
#	250423
#	264506
#
# Disc length: 3930 seconds
#
# Revision: 0
# Processed by: cddbd v1.5.2PL0 Copyright (c) Steve Scherf et al.
# Submitted via: EasyCDDAExtractor 16.0.6.1
#
DISCID=0b0f5814
DTITLE=Ξυλούρης Νίκος - Ήτανε μιά φορά-Ν. Ξυλούρης 2
DYEAR=2004
DGENRE=Έντεχνη λαϊκή
TTITLE0=Μπαρμπα Γιάννη Μακρυγιάννη [Στ. Ξαρχάκος-Ν. Γκάτσος]
TTITLE1=Αυτόν τον κόσμο τον καλό [Στ. Ξαρχάκος-Βασ. Ανδρεόπουλος]
TTITLE2=Το παραμύθι [Στ. Ξαρχάκος-Γ. Ζερβουλάκος]
TTITLE3=Γεννήθηκα [Γ. Μαρκόπουλος-Κ. Χ. Μύρης]
TTITLE4=Πώς να σωπάσω [Στ. Ξαρχάκος-Κ. Κινδύνης]
TTITLE5=Είδα τον παπούλη μου [Γ. Μαρκόπουλος-Κ. Χ. Μύρης]
TTITLE6=Η μπαλάντα του κυρ Μέντιου [Θ. Λουκάς-Κ. Βάρναλης]
TTITLE7=Γυρνάν αμίλητα παιδιά [Στ. Ξαρχάκος-Κ. Κινδύνης]
TTITLE8=Πάνω στ' αργυρό σκαμνί [Χρ. Χάλαρης-Γ. Κακουλίδης]
TTITLE9=Ζαβαρακατρανέμια [Γ. Μαρκόπουλος]
TTITLE10=Αγρίμια κι αγριμάκια μου [Γ. Μαρκόπουλος-Ν. Ξυλούρης]
TTITLE11=Ξηροστεριανό νερό [Ν. Ξυλούρης]
TTITLE12=Καυγάδες για το γιασεμί [Ν. Ξυλούρης]
TTITLE13=Όσο βαρούν τα σίδερα [Ν. Ξυλούρης]
TTITLE14=Την μάννα μου την αγαπώ [Ν. Ξυλούρης]
TTITLE15=Αποχαιρετισμός [Κ. Μουντάκης]
TTITLE16=Ο θούριος του Ρήγα [μουσ. στ. Χρ. Λεοντής]
TTITLE17=Ο πραματευτής [Κ. Μουντάκης]
TTITLE18=Ο αργαλειός [Κ. Μουντάκης]
TTITLE19=Ερωτόκριτος(Το παραμύθι του Ερωτόκριτου)[Ουρ.Μελαμπανάκη]
EXTD=
EXTT0=
EXTT1=
EXTT2=
EXTT3=
EXTT4=
EXTT5=
EXTT6=
EXTT7=
EXTT8=
EXTT9=
EXTT10=
EXTT11=
EXTT12=
EXTT13=
EXTT14=
EXTT15=
EXTT16=
EXTT17=
EXTT18=
EXTT19=
PLAYORDER=
